<svg width="58" height="58" viewBox="0 0 58 58" fill="none" xmlns="http://www.w3.org/2000/svg">
<rect x="2.83708" y="29" width="37" height="37" rx="3.5" transform="rotate(-45 2.83708 29)" stroke="#ED2821" stroke-width="3"/>
<path d="M18.404 28.94V25.772C18.404 22.436 19.28 19.832 21.032 17.96C22.784 16.088 25.208 15.152 28.304 15.152C31.4 15.152 33.884 16.088 35.756 17.96C37.076 19.28 37.736 21.26 37.736 23.9H33.056C33.056 21.044 31.532 19.616 28.484 19.616C27.572 19.616 26.792 19.796 26.144 20.156C25.52 20.492 25.052 20.888 24.74 21.344C24.428 21.8 24.188 22.472 24.02 23.36C23.852 24.248 23.756 24.992 23.732 25.592C23.708 26.192 23.696 26.996 23.696 28.004C23.696 29.012 23.696 29.696 23.696 30.056C23.72 30.392 23.756 30.956 23.804 31.748C23.876 32.516 23.972 33.068 24.092 33.404C24.236 33.74 24.428 34.172 24.668 34.7C24.932 35.228 25.256 35.6 25.64 35.816C26.624 36.44 27.74 36.752 28.988 36.752C31.076 36.752 32.552 35.864 33.416 34.088V32.36H30.32V28.184H37.7V35.924C36.956 37.676 35.78 38.996 34.172 39.884C32.564 40.772 30.74 41.216 28.7 41.216C25.076 41.216 22.448 40.208 20.816 38.192C19.208 36.152 18.404 33.068 18.404 28.94Z" fill="#ED2821"/>
</svg>
